<svg width="13" height="7" viewBox="0 0 13 7" fill="none" xmlns="http://www.w3.org/2000/svg">
<path d="M2.904 -1.66893e-06C3.32 -1.66893e-06 3.684 0.0639985 3.996 0.191999C4.316 0.319999 4.592 0.503999 4.824 0.743999C5.056 0.983999 5.244 1.268 5.388 1.596L4.476 2.028C4.348 1.644 4.152 1.352 3.888 1.152C3.632 0.943999 3.296 0.839999 2.88 0.839999C2.48 0.839999 2.136 0.931999 1.848 1.116C1.56 1.292 1.34 1.552 1.188 1.896C1.036 2.232 0.96 2.64 0.96 3.12C0.96 3.592 1.036 4 1.188 4.344C1.34 4.688 1.56 4.952 1.848 5.136C2.136 5.312 2.48 5.4 2.88 5.4C3.192 5.4 3.46 5.352 3.684 5.256C3.916 5.16 4.104 5.02 4.248 4.836C4.4 4.652 4.504 4.428 4.56 4.164L5.448 4.476C5.312 4.844 5.124 5.16 4.884 5.424C4.652 5.688 4.368 5.892 4.032 6.036C3.704 6.172 3.328 6.24 2.904 6.24C2.344 6.24 1.844 6.116 1.404 5.868C0.964 5.62 0.62 5.264 0.372 4.8C0.124 4.328 -7.45058e-08 3.768 -7.45058e-08 3.12C-7.45058e-08 2.472 0.124 1.916 0.372 1.452C0.62 0.979999 0.964 0.619999 1.404 0.371999C1.844 0.123998 2.344 -1.66893e-06 2.904 -1.66893e-06Z" fill="white"/>
<path d="M9.59484 -1.66893e-06C10.2028 -1.66893e-06 10.7068 0.0879984 11.1068 0.263999C11.5148 0.431999 11.8308 0.659999 12.0548 0.947999C12.2868 1.228 12.4308 1.532 12.4868 1.86L10.6028 2.484C10.5468 2.14 10.4428 1.884 10.2908 1.716C10.1468 1.54 9.93484 1.452 9.65484 1.452C9.39884 1.452 9.18284 1.512 9.00684 1.632C8.83884 1.744 8.71084 1.928 8.62284 2.184C8.53484 2.432 8.49084 2.752 8.49084 3.144C8.49084 3.536 8.53884 3.856 8.63484 4.104C8.73084 4.344 8.86684 4.52 9.04284 4.632C9.21884 4.736 9.42684 4.788 9.66684 4.788C9.86684 4.788 10.0308 4.752 10.1588 4.68C10.2948 4.6 10.4068 4.488 10.4948 4.344C10.5828 4.2 10.6388 4.024 10.6628 3.816L12.4988 4.404C12.4428 4.756 12.2908 5.072 12.0428 5.352C11.8028 5.624 11.4828 5.84 11.0828 6C10.6828 6.16 10.2148 6.24 9.67884 6.24C9.02284 6.24 8.45084 6.12 7.96284 5.88C7.47484 5.632 7.09884 5.276 6.83484 4.812C6.57084 4.34 6.43884 3.776 6.43884 3.12C6.43884 2.464 6.57084 1.904 6.83484 1.44C7.09884 0.967999 7.46684 0.611999 7.93884 0.371999C8.41884 0.123998 8.97084 -1.66893e-06 9.59484 -1.66893e-06Z" fill="#DEF200"/>
</svg>
