<?xml version="1.0"?>
<svg width="83" height="9" xmlns="http://www.w3.org/2000/svg" xmlns:svg="http://www.w3.org/2000/svg">
 <g class="layer">
  <title>Layer 1</title>
  <path d="m2.9,2.64c0.42,0 0.78,0.06 1.1,0.19c0.32,0.13 0.59,0.31 0.82,0.55c0.24,0.24 0.42,0.53 0.57,0.86l-0.91,0.43c-0.13,-0.39 -0.33,-0.68 -0.59,-0.88c-0.26,-0.21 -0.59,-0.31 -1.01,-0.31c-0.4,0 -0.74,0.09 -1.03,0.28c-0.29,0.17 -0.51,0.43 -0.66,0.78c-0.15,0.33 -0.23,0.74 -0.23,1.22c0,0.47 0.08,0.88 0.23,1.22c0.15,0.35 0.37,0.61 0.66,0.8c0.29,0.17 0.63,0.26 1.03,0.26c0.31,0 0.58,-0.05 0.8,-0.14c0.24,-0.1 0.42,-0.24 0.57,-0.42c0.15,-0.19 0.25,-0.41 0.31,-0.68l0.89,0.32c-0.14,0.36 -0.33,0.68 -0.57,0.94c-0.23,0.27 -0.51,0.47 -0.85,0.62c-0.33,0.13 -0.7,0.2 -1.13,0.2c-0.56,0 -1.06,-0.12 -1.5,-0.37c-0.44,-0.25 -0.78,-0.61 -1.03,-1.07c-0.25,-0.47 -0.37,-1.03 -0.37,-1.68c0,-0.65 0.12,-1.2 0.37,-1.67c0.25,-0.47 0.59,-0.83 1.03,-1.08c0.44,-0.25 0.94,-0.37 1.5,-0.37zm4.23,6.12l0,-6l0.78,0l0.14,0.98c0.16,-0.36 0.41,-0.64 0.73,-0.82c0.33,-0.19 0.72,-0.28 1.19,-0.28c0.1,0 0.21,0.01 0.33,0.02c0.13,0.02 0.24,0.05 0.33,0.1l-0.17,0.88c-0.09,-0.04 -0.19,-0.06 -0.29,-0.08c-0.1,-0.01 -0.25,-0.02 -0.44,-0.02c-0.25,0 -0.5,0.07 -0.76,0.22c-0.25,0.14 -0.46,0.36 -0.62,0.66c-0.17,0.28 -0.26,0.65 -0.26,1.1l0,3.24l-0.96,0zm7.2,-6.12c0.57,0 1.07,0.12 1.5,0.37c0.44,0.25 0.78,0.61 1.03,1.08c0.25,0.47 0.37,1.02 0.37,1.67c0,0.65 -0.12,1.21 -0.37,1.68c-0.25,0.46 -0.59,0.82 -1.03,1.07c-0.43,0.25 -0.93,0.37 -1.5,0.37c-0.56,0 -1.06,-0.12 -1.5,-0.37c-0.44,-0.25 -0.78,-0.61 -1.03,-1.07c-0.25,-0.47 -0.37,-1.03 -0.37,-1.68c0,-0.65 0.12,-1.2 0.37,-1.67c0.25,-0.47 0.59,-0.83 1.03,-1.08c0.44,-0.25 0.94,-0.37 1.5,-0.37zm0,0.83c-0.41,0 -0.76,0.09 -1.04,0.27c-0.29,0.19 -0.52,0.45 -0.68,0.8c-0.15,0.33 -0.22,0.74 -0.22,1.22c0,0.47 0.07,0.88 0.22,1.22c0.16,0.35 0.39,0.61 0.68,0.8c0.28,0.18 0.63,0.27 1.04,0.27c0.41,0 0.76,-0.09 1.04,-0.27c0.29,-0.19 0.51,-0.45 0.66,-0.8c0.16,-0.34 0.24,-0.75 0.24,-1.22c0,-0.48 -0.08,-0.89 -0.24,-1.22c-0.15,-0.35 -0.37,-0.61 -0.66,-0.8c-0.28,-0.18 -0.63,-0.27 -1.04,-0.27zm12.05,-0.71l1.07,0l-2.09,6l-0.96,0l-1.69,-4.78l-1.6,4.78l-0.96,0l-2.09,-6l1.07,0l1.51,4.88l1.63,-4.88l0.96,0l1.64,4.88l1.51,-4.88zm4.66,6.12c-0.5,0 -0.95,-0.12 -1.37,-0.37c-0.42,-0.25 -0.75,-0.61 -1,-1.07c-0.24,-0.47 -0.37,-1.03 -0.37,-1.68c0,-0.66 0.13,-1.23 0.4,-1.69c0.26,-0.47 0.61,-0.82 1.04,-1.06c0.43,-0.25 0.9,-0.37 1.39,-0.37c0.5,0 0.93,0.13 1.29,0.38c0.37,0.26 0.61,0.6 0.73,1.02l-0.12,0.09l0,-4.13l0.96,0l0,8.76l-0.84,0l-0.08,-1.45l0.13,-0.07c-0.06,0.35 -0.19,0.65 -0.41,0.9c-0.21,0.24 -0.47,0.42 -0.78,0.55c-0.3,0.13 -0.63,0.19 -0.97,0.19zm0.09,-0.84c0.39,0 0.72,-0.1 1,-0.29c0.29,-0.19 0.51,-0.46 0.66,-0.81c0.16,-0.36 0.24,-0.78 0.24,-1.26c0,-0.46 -0.08,-0.85 -0.24,-1.18c-0.15,-0.33 -0.37,-0.58 -0.65,-0.76c-0.27,-0.17 -0.59,-0.26 -0.96,-0.26c-0.61,0 -1.08,0.21 -1.41,0.62c-0.34,0.42 -0.51,0.97 -0.51,1.66c0,0.69 0.17,1.24 0.49,1.66c0.33,0.41 0.79,0.62 1.38,0.62z" fill="#3B82F6" id="svg_1"/>
  <path d="m38.68,2.64c0.61,0 1.11,0.09 1.51,0.26c0.41,0.17 0.73,0.4 0.95,0.69c0.23,0.28 0.38,0.58 0.43,0.91l-1.88,0.62c-0.06,-0.34 -0.16,-0.6 -0.31,-0.76c-0.15,-0.18 -0.36,-0.27 -0.64,-0.27c-0.26,0 -0.47,0.06 -0.65,0.18c-0.17,0.11 -0.29,0.3 -0.38,0.55c-0.09,0.25 -0.13,0.57 -0.13,0.96c0,0.4 0.04,0.72 0.14,0.96c0.1,0.24 0.23,0.42 0.41,0.53c0.17,0.11 0.38,0.16 0.62,0.16c0.2,0 0.37,-0.04 0.49,-0.11c0.14,-0.08 0.25,-0.19 0.34,-0.34c0.09,-0.14 0.14,-0.32 0.17,-0.52l1.83,0.58c-0.05,0.36 -0.2,0.67 -0.45,0.95c-0.24,0.27 -0.56,0.49 -0.96,0.65c-0.4,0.16 -0.87,0.24 -1.41,0.24c-0.65,0 -1.22,-0.12 -1.71,-0.36c-0.49,-0.25 -0.87,-0.6 -1.13,-1.07c-0.26,-0.47 -0.4,-1.03 -0.4,-1.69c0,-0.66 0.14,-1.22 0.4,-1.68c0.26,-0.47 0.63,-0.83 1.1,-1.07c0.48,-0.25 1.04,-0.37 1.66,-0.37zm6.82,0c0.63,0 1.19,0.12 1.66,0.37c0.48,0.24 0.85,0.6 1.11,1.07c0.28,0.46 0.41,1.02 0.41,1.68c0,0.66 -0.13,1.22 -0.41,1.69c-0.26,0.47 -0.63,0.82 -1.11,1.07c-0.47,0.24 -1.03,0.36 -1.66,0.36c-0.61,0 -1.16,-0.12 -1.64,-0.36c-0.48,-0.25 -0.86,-0.6 -1.13,-1.07c-0.26,-0.47 -0.4,-1.03 -0.4,-1.69c0,-0.66 0.14,-1.22 0.4,-1.68c0.27,-0.47 0.65,-0.83 1.13,-1.07c0.48,-0.25 1.03,-0.37 1.64,-0.37zm0,1.45c-0.23,0 -0.43,0.06 -0.6,0.17c-0.17,0.11 -0.29,0.29 -0.38,0.54c-0.09,0.25 -0.13,0.57 -0.13,0.96c0,0.39 0.04,0.71 0.13,0.96c0.09,0.24 0.21,0.42 0.38,0.54c0.17,0.11 0.37,0.17 0.6,0.17c0.24,0 0.45,-0.06 0.61,-0.17c0.17,-0.12 0.3,-0.3 0.39,-0.54c0.09,-0.25 0.13,-0.57 0.13,-0.96c0,-0.39 -0.04,-0.71 -0.13,-0.96c-0.09,-0.25 -0.22,-0.43 -0.39,-0.54c-0.16,-0.11 -0.37,-0.17 -0.61,-0.17zm4.33,4.67l0,-6l1.82,0l0.11,2.06l-0.23,-0.22c0.08,-0.44 0.22,-0.8 0.42,-1.08c0.21,-0.29 0.47,-0.51 0.77,-0.65c0.31,-0.15 0.66,-0.23 1.05,-0.23c0.41,0 0.77,0.08 1.07,0.24c0.32,0.16 0.56,0.4 0.74,0.71c0.17,0.31 0.26,0.7 0.26,1.17l0,4l-2.04,0l0,-3.46c0,-0.41 -0.08,-0.7 -0.24,-0.86c-0.16,-0.16 -0.36,-0.24 -0.61,-0.24c-0.19,0 -0.37,0.05 -0.54,0.14c-0.17,0.09 -0.3,0.24 -0.4,0.44c-0.09,0.2 -0.14,0.46 -0.14,0.8l0,3.18l-2.04,0zm7.44,0l0,-6l1.82,0l0.11,2.06l-0.23,-0.22c0.08,-0.44 0.22,-0.8 0.42,-1.08c0.21,-0.29 0.47,-0.51 0.77,-0.65c0.31,-0.15 0.66,-0.23 1.05,-0.23c0.41,0 0.77,0.08 1.08,0.24c0.31,0.16 0.55,0.4 0.73,0.71c0.17,0.31 0.26,0.7 0.26,1.17l0,4l-2.04,0l0,-3.46c0,-0.41 -0.08,-0.7 -0.24,-0.86c-0.16,-0.16 -0.36,-0.24 -0.61,-0.24c-0.19,0 -0.37,0.05 -0.54,0.14c-0.17,0.09 -0.3,0.24 -0.4,0.44c-0.09,0.2 -0.14,0.46 -0.14,0.8l0,3.18l-2.04,0zm10.37,0.12c-0.66,0 -1.24,-0.12 -1.73,-0.37c-0.48,-0.25 -0.85,-0.61 -1.11,-1.07c-0.27,-0.46 -0.4,-1.02 -0.4,-1.68c0,-0.66 0.13,-1.22 0.4,-1.68c0.26,-0.46 0.63,-0.82 1.1,-1.07c0.48,-0.25 1.03,-0.37 1.64,-0.37c0.64,0 1.17,0.12 1.61,0.37c0.45,0.24 0.79,0.58 1.02,1.01c0.23,0.42 0.35,0.91 0.35,1.46c0,0.15 0,0.29 -0.01,0.44c-0.01,0.14 -0.02,0.26 -0.04,0.36l-4.75,0l0,-1.1l3.85,0l-0.97,0.38c0,-0.48 -0.09,-0.85 -0.26,-1.11c-0.17,-0.25 -0.44,-0.38 -0.8,-0.38c-0.25,0 -0.47,0.06 -0.66,0.18c-0.17,0.12 -0.31,0.31 -0.4,0.56c-0.09,0.26 -0.14,0.59 -0.14,0.99c0,0.39 0.06,0.71 0.16,0.96c0.1,0.24 0.25,0.41 0.44,0.52c0.2,0.11 0.43,0.16 0.7,0.16c0.3,0 0.54,-0.06 0.72,-0.18c0.18,-0.12 0.32,-0.29 0.41,-0.5l1.63,0.54c-0.11,0.34 -0.31,0.63 -0.59,0.87c-0.27,0.23 -0.6,0.41 -0.98,0.53c-0.38,0.12 -0.77,0.18 -1.19,0.18zm6.86,-6.24c0.61,0 1.12,0.09 1.52,0.26c0.4,0.17 0.72,0.4 0.95,0.69c0.23,0.28 0.37,0.58 0.43,0.91l-1.89,0.62c-0.05,-0.34 -0.16,-0.6 -0.31,-0.76c-0.14,-0.18 -0.36,-0.27 -0.64,-0.27c-0.25,0 -0.47,0.06 -0.64,0.18c-0.17,0.11 -0.3,0.3 -0.39,0.55c-0.09,0.25 -0.13,0.57 -0.13,0.96c0,0.4 0.05,0.72 0.15,0.96c0.09,0.24 0.23,0.42 0.4,0.53c0.18,0.11 0.39,0.16 0.63,0.16c0.2,0 0.36,-0.04 0.49,-0.11c0.13,-0.08 0.25,-0.19 0.34,-0.34c0.08,-0.14 0.14,-0.32 0.16,-0.52l1.84,0.58c-0.06,0.36 -0.21,0.67 -0.46,0.95c-0.24,0.27 -0.56,0.49 -0.96,0.65c-0.4,0.16 -0.86,0.24 -1.4,0.24c-0.66,0 -1.23,-0.12 -1.72,-0.36c-0.48,-0.25 -0.86,-0.6 -1.12,-1.07c-0.27,-0.47 -0.4,-1.03 -0.4,-1.69c0,-0.66 0.13,-1.22 0.4,-1.68c0.26,-0.47 0.63,-0.83 1.1,-1.07c0.48,-0.25 1.03,-0.37 1.65,-0.37zm6.48,-1.79l0,5.77c0,0.29 0.07,0.5 0.2,0.63c0.15,0.12 0.34,0.18 0.59,0.18c0.19,0 0.36,-0.02 0.49,-0.06c0.15,-0.05 0.27,-0.12 0.39,-0.21l0.21,1.26c-0.2,0.15 -0.45,0.26 -0.75,0.34c-0.31,0.08 -0.62,0.12 -0.94,0.12c-0.46,0 -0.85,-0.06 -1.19,-0.19c-0.33,-0.13 -0.58,-0.33 -0.77,-0.61c-0.17,-0.28 -0.26,-0.66 -0.27,-1.12l0,-5.54l2.04,-0.57zm1.79,1.91l0,1.45l-4.86,0l0,-1.45l4.86,0z" fill="#1E40AF" id="svg_2"/>
 </g>
</svg>