<svg width="83" height="9" viewBox="0 0 83 9" fill="none" xmlns="http://www.w3.org/2000/svg">
<path d="M2.904 2.64C3.32 2.64 3.684 2.704 3.996 2.832C4.316 2.96 4.592 3.144 4.824 3.384C5.056 3.624 5.244 3.908 5.388 4.236L4.476 4.668C4.348 4.284 4.152 3.992 3.888 3.792C3.632 3.584 3.296 3.48 2.88 3.48C2.48 3.48 2.136 3.572 1.848 3.756C1.56 3.932 1.34 4.192 1.188 4.536C1.036 4.872 0.960001 5.28 0.960001 5.76C0.960001 6.232 1.036 6.64 1.188 6.984C1.34 7.328 1.56 7.592 1.848 7.776C2.136 7.952 2.48 8.04 2.88 8.04C3.192 8.04 3.46 7.992 3.684 7.896C3.916 7.8 4.104 7.66 4.248 7.476C4.4 7.292 4.504 7.068 4.56 6.804L5.448 7.116C5.312 7.484 5.124 7.8 4.884 8.064C4.652 8.328 4.368 8.532 4.032 8.676C3.704 8.812 3.328 8.88 2.904 8.88C2.344 8.88 1.844 8.756 1.404 8.508C0.964001 8.26 0.620001 7.904 0.372001 7.44C0.124001 6.968 8.79169e-07 6.408 8.79169e-07 5.76C8.79169e-07 5.112 0.124001 4.556 0.372001 4.092C0.620001 3.62 0.964001 3.26 1.404 3.012C1.844 2.764 2.344 2.64 2.904 2.64ZM7.13484 8.76V2.76H7.91484L8.04684 3.744C8.21484 3.376 8.45884 3.1 8.77884 2.916C9.10684 2.732 9.50284 2.64 9.96684 2.64C10.0708 2.64 10.1828 2.648 10.3028 2.664C10.4308 2.68 10.5388 2.712 10.6268 2.76L10.4588 3.636C10.3708 3.604 10.2748 3.58 10.1708 3.564C10.0668 3.548 9.91884 3.54 9.72684 3.54C9.47884 3.54 9.22684 3.612 8.97084 3.756C8.72284 3.9 8.51484 4.12 8.34684 4.416C8.17884 4.704 8.09484 5.072 8.09484 5.52V8.76H7.13484ZM14.3298 2.64C14.8978 2.64 15.3978 2.764 15.8298 3.012C16.2698 3.26 16.6138 3.62 16.8618 4.092C17.1098 4.556 17.2338 5.112 17.2338 5.76C17.2338 6.408 17.1098 6.968 16.8618 7.44C16.6138 7.904 16.2698 8.26 15.8298 8.508C15.3978 8.756 14.8978 8.88 14.3298 8.88C13.7698 8.88 13.2698 8.756 12.8298 8.508C12.3898 8.26 12.0458 7.904 11.7978 7.44C11.5498 6.968 11.4258 6.408 11.4258 5.76C11.4258 5.112 11.5498 4.556 11.7978 4.092C12.0458 3.62 12.3898 3.26 12.8298 3.012C13.2698 2.764 13.7698 2.64 14.3298 2.64ZM14.3298 3.468C13.9218 3.468 13.5738 3.56 13.2858 3.744C12.9978 3.928 12.7738 4.192 12.6138 4.536C12.4618 4.872 12.3858 5.28 12.3858 5.76C12.3858 6.232 12.4618 6.64 12.6138 6.984C12.7738 7.328 12.9978 7.592 13.2858 7.776C13.5738 7.96 13.9218 8.052 14.3298 8.052C14.7378 8.052 15.0858 7.96 15.3738 7.776C15.6618 7.592 15.8818 7.328 16.0338 6.984C16.1938 6.64 16.2738 6.232 16.2738 5.76C16.2738 5.28 16.1938 4.872 16.0338 4.536C15.8818 4.192 15.6618 3.928 15.3738 3.744C15.0858 3.56 14.7378 3.468 14.3298 3.468ZM26.3776 2.76H27.4456L25.3576 8.76H24.3976L22.7056 3.984L21.1096 8.76H20.1496L18.0616 2.76H19.1296L20.6416 7.644L22.2736 2.76H23.2336L24.8656 7.644L26.3776 2.76ZM31.0373 8.88C30.5413 8.88 30.0853 8.756 29.6693 8.508C29.2533 8.26 28.9213 7.904 28.6733 7.44C28.4253 6.968 28.3013 6.408 28.3013 5.76C28.3013 5.096 28.4333 4.532 28.6973 4.068C28.9613 3.604 29.3093 3.252 29.7413 3.012C30.1733 2.764 30.6373 2.64 31.1333 2.64C31.6293 2.64 32.0573 2.768 32.4173 3.024C32.7853 3.28 33.0293 3.62 33.1493 4.044L33.0293 4.128V-1.90735e-06H33.9893V8.76H33.1493L33.0653 7.308L33.1973 7.236C33.1413 7.588 33.0053 7.888 32.7893 8.136C32.5813 8.376 32.3213 8.56 32.0093 8.688C31.7053 8.816 31.3813 8.88 31.0373 8.88ZM31.1333 8.04C31.5173 8.04 31.8493 7.944 32.1293 7.752C32.4173 7.56 32.6373 7.288 32.7893 6.936C32.9493 6.576 33.0293 6.156 33.0293 5.676C33.0293 5.22 32.9493 4.828 32.7893 4.5C32.6373 4.172 32.4213 3.92 32.1413 3.744C31.8693 3.568 31.5493 3.48 31.1813 3.48C30.5733 3.48 30.1013 3.688 29.7653 4.104C29.4293 4.52 29.2613 5.072 29.2613 5.76C29.2613 6.448 29.4253 7 29.7533 7.416C30.0813 7.832 30.5413 8.04 31.1333 8.04Z" fill="#3B82F6"/>
<path d="M38.6808 2.64C39.2888 2.64 39.7928 2.728 40.1928 2.904C40.6008 3.072 40.9168 3.3 41.1408 3.588C41.3728 3.868 41.5168 4.172 41.5728 4.5L39.6888 5.124C39.6328 4.78 39.5288 4.524 39.3768 4.356C39.2328 4.18 39.0208 4.092 38.7408 4.092C38.4848 4.092 38.2688 4.152 38.0928 4.272C37.9248 4.384 37.7968 4.568 37.7088 4.824C37.6208 5.072 37.5768 5.392 37.5768 5.784C37.5768 6.176 37.6248 6.496 37.7208 6.744C37.8168 6.984 37.9528 7.16 38.1288 7.272C38.3048 7.376 38.5128 7.428 38.7528 7.428C38.9528 7.428 39.1168 7.392 39.2448 7.32C39.3808 7.24 39.4928 7.128 39.5808 6.984C39.6688 6.84 39.7248 6.664 39.7488 6.456L41.5848 7.044C41.5288 7.396 41.3768 7.712 41.1288 7.992C40.8888 8.264 40.5688 8.48 40.1688 8.64C39.7688 8.8 39.3008 8.88 38.7648 8.88C38.1088 8.88 37.5368 8.76 37.0488 8.52C36.5608 8.272 36.1848 7.916 35.9208 7.452C35.6568 6.98 35.5248 6.416 35.5248 5.76C35.5248 5.104 35.6568 4.544 35.9208 4.08C36.1848 3.608 36.5528 3.252 37.0248 3.012C37.5048 2.764 38.0568 2.64 38.6808 2.64ZM45.5014 2.64C46.1334 2.64 46.6854 2.764 47.1574 3.012C47.6374 3.252 48.0094 3.608 48.2734 4.08C48.5454 4.544 48.6814 5.104 48.6814 5.76C48.6814 6.416 48.5454 6.98 48.2734 7.452C48.0094 7.916 47.6374 8.272 47.1574 8.52C46.6854 8.76 46.1334 8.88 45.5014 8.88C44.8854 8.88 44.3374 8.76 43.8574 8.52C43.3774 8.272 43.0014 7.916 42.7294 7.452C42.4654 6.98 42.3334 6.416 42.3334 5.76C42.3334 5.104 42.4654 4.544 42.7294 4.08C43.0014 3.608 43.3774 3.252 43.8574 3.012C44.3374 2.764 44.8854 2.64 45.5014 2.64ZM45.5014 4.092C45.2694 4.092 45.0694 4.148 44.9014 4.26C44.7334 4.372 44.6054 4.552 44.5174 4.8C44.4294 5.048 44.3854 5.368 44.3854 5.76C44.3854 6.152 44.4294 6.472 44.5174 6.72C44.6054 6.96 44.7334 7.14 44.9014 7.26C45.0694 7.372 45.2694 7.428 45.5014 7.428C45.7414 7.428 45.9454 7.372 46.1134 7.26C46.2814 7.14 46.4094 6.96 46.4974 6.72C46.5854 6.472 46.6294 6.152 46.6294 5.76C46.6294 5.368 46.5854 5.048 46.4974 4.8C46.4094 4.552 46.2814 4.372 46.1134 4.26C45.9454 4.148 45.7414 4.092 45.5014 4.092ZM49.829 8.76V2.76H51.653L51.761 4.824L51.533 4.596C51.613 4.164 51.753 3.804 51.953 3.516C52.161 3.228 52.417 3.012 52.721 2.868C53.033 2.716 53.381 2.64 53.765 2.64C54.181 2.64 54.541 2.72 54.845 2.88C55.157 3.04 55.401 3.276 55.577 3.588C55.753 3.9 55.841 4.292 55.841 4.764V8.76H53.801V5.304C53.801 4.888 53.721 4.6 53.561 4.44C53.401 4.28 53.197 4.2 52.949 4.2C52.757 4.2 52.577 4.248 52.409 4.344C52.241 4.432 52.109 4.576 52.013 4.776C51.917 4.976 51.869 5.244 51.869 5.58V8.76H49.829ZM57.2704 8.76V2.76H59.0944L59.2024 4.824L58.9744 4.596C59.0544 4.164 59.1944 3.804 59.3944 3.516C59.6024 3.228 59.8584 3.012 60.1624 2.868C60.4744 2.716 60.8224 2.64 61.2064 2.64C61.6224 2.64 61.9824 2.72 62.2864 2.88C62.5984 3.04 62.8424 3.276 63.0184 3.588C63.1944 3.9 63.2824 4.292 63.2824 4.764V8.76H61.2424V5.304C61.2424 4.888 61.1624 4.6 61.0024 4.44C60.8424 4.28 60.6384 4.2 60.3904 4.2C60.1984 4.2 60.0184 4.248 59.8504 4.344C59.6824 4.432 59.5504 4.576 59.4544 4.776C59.3584 4.976 59.3104 5.244 59.3104 5.58V8.76H57.2704ZM67.6398 8.88C66.9758 8.88 66.3998 8.756 65.9118 8.508C65.4318 8.26 65.0598 7.904 64.7958 7.44C64.5318 6.976 64.3998 6.416 64.3998 5.76C64.3998 5.104 64.5318 4.544 64.7958 4.08C65.0598 3.616 65.4278 3.26 65.8998 3.012C66.3798 2.764 66.9278 2.64 67.5438 2.64C68.1758 2.64 68.7118 2.764 69.1518 3.012C69.5998 3.252 69.9398 3.588 70.1718 4.02C70.4038 4.444 70.5198 4.932 70.5198 5.484C70.5198 5.628 70.5158 5.772 70.5078 5.916C70.4998 6.06 70.4878 6.18 70.4718 6.276H65.7198V5.184H69.5718L68.5998 5.556C68.5998 5.076 68.5118 4.708 68.3358 4.452C68.1678 4.196 67.9038 4.068 67.5438 4.068C67.2878 4.068 67.0678 4.128 66.8838 4.248C66.7078 4.368 66.5718 4.556 66.4758 4.812C66.3878 5.068 66.3438 5.396 66.3438 5.796C66.3438 6.188 66.3958 6.508 66.4998 6.756C66.6038 6.996 66.7518 7.172 66.9438 7.284C67.1358 7.388 67.3678 7.44 67.6398 7.44C67.9438 7.44 68.1838 7.38 68.3598 7.26C68.5438 7.14 68.6798 6.972 68.7678 6.756L70.3998 7.296C70.2878 7.64 70.0918 7.932 69.8118 8.172C69.5398 8.404 69.2118 8.58 68.8278 8.7C68.4518 8.82 68.0558 8.88 67.6398 8.88ZM74.505 2.64C75.113 2.64 75.617 2.728 76.017 2.904C76.425 3.072 76.741 3.3 76.965 3.588C77.197 3.868 77.341 4.172 77.397 4.5L75.513 5.124C75.457 4.78 75.353 4.524 75.201 4.356C75.057 4.18 74.845 4.092 74.565 4.092C74.309 4.092 74.093 4.152 73.917 4.272C73.749 4.384 73.621 4.568 73.533 4.824C73.445 5.072 73.401 5.392 73.401 5.784C73.401 6.176 73.449 6.496 73.545 6.744C73.641 6.984 73.777 7.16 73.953 7.272C74.129 7.376 74.337 7.428 74.577 7.428C74.777 7.428 74.941 7.392 75.069 7.32C75.205 7.24 75.317 7.128 75.405 6.984C75.493 6.84 75.549 6.664 75.573 6.456L77.409 7.044C77.353 7.396 77.201 7.712 76.953 7.992C76.713 8.264 76.393 8.48 75.993 8.64C75.593 8.8 75.125 8.88 74.589 8.88C73.933 8.88 73.361 8.76 72.873 8.52C72.385 8.272 72.009 7.916 71.745 7.452C71.481 6.98 71.349 6.416 71.349 5.76C71.349 5.104 71.481 4.544 71.745 4.08C72.009 3.608 72.377 3.252 72.849 3.012C73.329 2.764 73.881 2.64 74.505 2.64ZM80.9776 0.851998V6.624C80.9776 6.912 81.0456 7.12 81.1816 7.248C81.3256 7.368 81.5216 7.428 81.7696 7.428C81.9616 7.428 82.1256 7.408 82.2616 7.368C82.4056 7.32 82.5336 7.252 82.6456 7.164L82.8616 8.424C82.6616 8.568 82.4096 8.68 82.1056 8.76C81.8016 8.84 81.4896 8.88 81.1696 8.88C80.7136 8.88 80.3176 8.816 79.9816 8.688C79.6536 8.56 79.3976 8.356 79.2136 8.076C79.0376 7.796 78.9456 7.424 78.9376 6.96V1.416L80.9776 0.851998ZM82.7656 2.76V4.212H77.9056V2.76H82.7656Z" fill="#1E40AF"/>
</svg>
